<?xml version="1.0" encoding="UTF-8" standalone="no"?>
<svg
   xmlns:dc="http://purl.org/dc/elements/1.1/"
   xmlns:cc="http://creativecommons.org/ns#"
   xmlns:rdf="http://www.w3.org/1999/02/22-rdf-syntax-ns#"
   xmlns:svg="http://www.w3.org/2000/svg"
   xmlns="http://www.w3.org/2000/svg"
   width="11.369655mm"
   height="6.624249mm"
   viewBox="0 0 11.369655 6.624249"
   version="1.1"
   id="svg8">
  <defs
     id="defs2" />
  <metadata
     id="metadata5">
    <rdf:RDF>
      <cc:Work
         rdf:about="">
        <dc:format>image/svg+xml</dc:format>
        <dc:type
           rdf:resource="http://purl.org/dc/dcmitype/StillImage" />
        <dc:title></dc:title>
      </cc:Work>
    </rdf:RDF>
  </metadata>
  <g
     id="layer1"
     transform="translate(-8.6063867,-10.715399)">
    <path
       id="path925"
       style="fill:none;stroke:#00537f;stroke-width:0.264583;stroke-linecap:round;stroke-linejoin:round;stroke-miterlimit:4;stroke-dasharray:none;stroke-dashoffset:0.33;stroke-opacity:1;stop-color:#000000"
       d="m 13.926873,15.222981 a 1.984375,1.984375 0 0 1 -1.984375,1.984375 1.984375,1.984375 0 0 1 -1.9843748,-1.984375 1.984375,1.984375 0 0 1 1.9843748,-1.984375 1.984375,1.984375 0 0 1 1.984375,1.984375 z m -2.020623,1.974936 h 7.9375 m -7.979976,-6.345621 h 7.938 m -4.713096,3.170394 a 3.175,3.175 0 0 1 -3.175,3.175 3.175,3.175 0 0 1 -3.1749998,-3.175 3.175,3.175 0 0 1 3.1749998,-3.175 3.175,3.175 0 0 1 3.175,3.175 z m -2.097018,2.117147 a 1.0583333,1.0583333 0 0 1 -1.058333,1.058334 1.0583333,1.0583333 0 0 1 -1.058334,-1.058334 1.0583333,1.0583333 0 0 1 1.058334,-1.058333 1.0583333,1.0583333 0 0 1 1.058333,1.058333 z" />
  </g>
</svg>
